<svg xmlns="http://www.w3.org/2000/svg" xmlns:xlink="http://www.w3.org/1999/xlink" width="500" zoomAndPan="magnify" viewBox="0 0 375 374.999991" height="500" preserveAspectRatio="xMidYMid meet" version="1.0"><defs><g/></defs><g fill="#000000" fill-opacity="1"><g transform="translate(63.56718, 209.68298)"><g><path d="M 22.6875 -25.734375 C 23 -23.898438 23.195312 -22.039062 23.28125 -20.15625 C 23.363281 -18.28125 23.300781 -16.398438 23.09375 -14.515625 C 22.9375 -12.878906 22.675781 -11.191406 22.3125 -9.453125 C 21.957031 -7.710938 21.28125 -6.140625 20.28125 -4.734375 C 19.957031 -4.296875 19.613281 -3.863281 19.25 -3.4375 C 18.894531 -3.019531 18.5 -2.632812 18.0625 -2.28125 C 17.5 -1.71875 16.867188 -1.242188 16.171875 -0.859375 C 15.472656 -0.484375 14.703125 -0.238281 13.859375 -0.125 C 13.222656 -0.0820312 12.5625 -0.0820312 11.875 -0.125 C 10.875 0.0390625 9.851562 -0.0351562 8.8125 -0.359375 C 7.78125 -0.679688 6.863281 -1.160156 6.0625 -1.796875 C 4.65625 -2.992188 3.613281 -4.441406 2.9375 -6.140625 C 2.257812 -7.847656 1.757812 -9.582031 1.4375 -11.34375 C 0.84375 -15.175781 0.84375 -19.015625 1.4375 -22.859375 C 2.039062 -26.703125 3.34375 -30.300781 5.34375 -33.65625 C 5.34375 -33.65625 5.378906 -33.695312 5.453125 -33.78125 C 6.054688 -35.382812 6.859375 -36.820312 7.859375 -38.09375 C 7.898438 -38.175781 7.941406 -38.207031 7.984375 -38.1875 C 8.023438 -38.164062 8.023438 -38.117188 7.984375 -38.046875 C 7.816406 -37.765625 7.644531 -37.472656 7.46875 -37.171875 C 7.289062 -36.867188 7.140625 -36.554688 7.015625 -36.234375 C 6.859375 -35.921875 6.71875 -35.59375 6.59375 -35.25 C 6.476562 -34.90625 6.359375 -34.578125 6.234375 -34.265625 C 6.316406 -34.296875 6.40625 -34.300781 6.5 -34.28125 C 6.601562 -34.269531 6.675781 -34.265625 6.71875 -34.265625 C 7.238281 -35.378906 7.859375 -36.351562 8.578125 -37.1875 C 9.296875 -38.03125 10.132812 -38.554688 11.09375 -38.765625 C 11.5 -38.921875 11.890625 -39.046875 12.265625 -39.140625 C 12.648438 -39.242188 13.039062 -39.273438 13.4375 -39.234375 C 13.875 -39.316406 14.320312 -39.347656 14.78125 -39.328125 C 15.25 -39.304688 15.660156 -39.195312 16.015625 -39 C 16.421875 -38.757812 16.769531 -38.414062 17.0625 -37.96875 C 17.363281 -37.53125 17.613281 -37.113281 17.8125 -36.71875 C 18.0625 -36.800781 18.3125 -36.8125 18.5625 -36.75 C 18.820312 -36.6875 19.035156 -36.515625 19.203125 -36.234375 C 19.640625 -35.441406 20.054688 -34.625 20.453125 -33.78125 C 20.859375 -32.9375 21.203125 -32.078125 21.484375 -31.203125 C 21.765625 -30.316406 21.992188 -29.414062 22.171875 -28.5 C 22.347656 -27.582031 22.519531 -26.660156 22.6875 -25.734375 Z M 15.1875 -8.28125 C 15.695312 -9.675781 16.050781 -11.113281 16.25 -12.59375 C 16.457031 -14.070312 16.5625 -15.554688 16.5625 -17.046875 C 16.4375 -18.554688 16.3125 -20.0625 16.1875 -21.5625 C 16.070312 -23.0625 15.894531 -24.554688 15.65625 -26.046875 C 15.582031 -26.484375 15.503906 -26.929688 15.421875 -27.390625 C 15.335938 -27.847656 15.257812 -28.28125 15.1875 -28.6875 C 15.019531 -29.238281 14.835938 -29.773438 14.640625 -30.296875 C 14.441406 -30.816406 14.242188 -31.335938 14.046875 -31.859375 C 13.960938 -32.054688 13.867188 -32.273438 13.765625 -32.515625 C 13.671875 -32.753906 13.5625 -32.976562 13.4375 -33.1875 C 13.351562 -33.257812 13.273438 -33.296875 13.203125 -33.296875 L 12.90625 -33.296875 C 12.738281 -32.972656 12.582031 -32.628906 12.4375 -32.265625 C 12.300781 -31.910156 12.195312 -31.578125 12.125 -31.265625 C 11.800781 -30.179688 11.507812 -29.085938 11.25 -27.984375 C 10.988281 -26.890625 10.78125 -25.757812 10.625 -24.59375 C 10.34375 -22.394531 10.21875 -20.15625 10.25 -17.875 C 10.289062 -15.59375 10.492188 -13.332031 10.859375 -11.09375 C 10.984375 -10.414062 10.90625 -9.816406 10.625 -9.296875 C 9.78125 -13.222656 9.445312 -17.273438 9.625 -21.453125 C 9.8125 -25.628906 10.765625 -29.519531 12.484375 -33.125 C 12.316406 -33 12.160156 -32.828125 12.015625 -32.609375 C 11.878906 -32.390625 11.753906 -32.179688 11.640625 -31.984375 C 11.078125 -30.859375 10.59375 -29.695312 10.1875 -28.5 C 9.789062 -27.300781 9.472656 -26.082031 9.234375 -24.84375 C 9.160156 -24.675781 9.125 -24.59375 9.125 -24.59375 C 9 -23.914062 8.90625 -23.226562 8.84375 -22.53125 C 8.789062 -21.832031 8.722656 -21.140625 8.640625 -20.453125 C 8.554688 -18.421875 8.625 -16.394531 8.84375 -14.375 C 9.070312 -12.351562 9.40625 -10.363281 9.84375 -8.40625 C 9.644531 -8.238281 9.425781 -8.132812 9.1875 -8.09375 C 8.457031 -7.9375 7.753906 -8.054688 7.078125 -8.453125 C 7.398438 -7.816406 7.835938 -7.15625 8.390625 -6.46875 C 8.953125 -5.789062 9.601562 -5.28125 10.34375 -4.9375 C 11.082031 -4.601562 11.875 -4.554688 12.71875 -4.796875 C 13.394531 -5.035156 13.9375 -5.515625 14.34375 -6.234375 C 14.539062 -6.554688 14.707031 -6.882812 14.84375 -7.21875 C 14.988281 -7.5625 15.101562 -7.914062 15.1875 -8.28125 Z M 15.1875 -8.28125 "/></g></g></g><g fill="#000000" fill-opacity="1"><g transform="translate(88.767161, 209.68298)"><g/></g></g><g fill="#000000" fill-opacity="1"><g transform="translate(100.767148, 209.68298)"><g><path d="M 21.953125 -1.796875 C 21.710938 -1.878906 21.441406 -2.300781 21.140625 -3.0625 C 20.847656 -3.820312 20.53125 -4.757812 20.1875 -5.875 C 19.851562 -7 19.535156 -8.160156 19.234375 -9.359375 C 18.929688 -10.554688 18.660156 -11.632812 18.421875 -12.59375 C 18.179688 -13.5625 18.019531 -14.265625 17.9375 -14.703125 L 13.265625 -14.640625 C 12.816406 -12.835938 12.429688 -11.046875 12.109375 -9.265625 C 11.796875 -7.484375 11.5625 -5.675781 11.40625 -3.84375 C 11.40625 -3.476562 11.234375 -3.296875 10.890625 -3.296875 C 10.546875 -3.296875 10.394531 -3.476562 10.4375 -3.84375 C 10.601562 -5.644531 10.832031 -7.453125 11.125 -9.265625 C 11.425781 -11.085938 11.859375 -12.878906 12.421875 -14.640625 L 11.875 -14.640625 C 11.675781 -13.921875 11.476562 -13.050781 11.28125 -12.03125 C 11.082031 -11.007812 10.890625 -10.007812 10.703125 -9.03125 C 10.523438 -8.050781 10.375 -7.226562 10.25 -6.5625 C 10.132812 -5.90625 10.078125 -5.578125 10.078125 -5.578125 L 9.71875 -2.875 C 9.601562 -1.519531 9.144531 -0.546875 8.34375 0.046875 C 7.539062 0.648438 6.660156 0.890625 5.703125 0.765625 C 4.742188 0.648438 3.929688 0.195312 3.265625 -0.59375 C 2.609375 -1.394531 2.378906 -2.5 2.578125 -3.90625 C 2.816406 -5.664062 3.097656 -7.421875 3.421875 -9.171875 C 3.742188 -10.929688 4.125 -12.675781 4.5625 -14.40625 C 4.28125 -14.363281 4 -14.332031 3.71875 -14.3125 C 3.4375 -14.289062 3.175781 -14.28125 2.9375 -14.28125 C 3.019531 -14.476562 3.039062 -14.65625 3 -14.8125 C 2.039062 -15.0625 1.335938 -15.582031 0.890625 -16.375 C 0.453125 -17.175781 0.332031 -18.066406 0.53125 -19.046875 C 0.738281 -20.023438 1.300781 -20.925781 2.21875 -21.75 C 3.132812 -22.570312 4.492188 -23.125 6.296875 -23.40625 C 6.734375 -25.40625 7.210938 -27.375 7.734375 -29.3125 C 8.253906 -31.25 8.894531 -33.140625 9.65625 -34.984375 C 10.019531 -35.785156 10.421875 -36.65625 10.859375 -37.59375 C 11.296875 -38.53125 11.84375 -39.347656 12.5 -40.046875 C 13.164062 -40.742188 14 -41.09375 15 -41.09375 C 15.519531 -41.132812 16.039062 -40.992188 16.5625 -40.671875 C 17.082031 -40.359375 17.460938 -39.960938 17.703125 -39.484375 C 18.578125 -39.441406 19.304688 -39.128906 19.890625 -38.546875 C 20.472656 -37.972656 20.800781 -37.203125 20.875 -36.234375 C 20.957031 -35.035156 21.054688 -33.828125 21.171875 -32.609375 C 21.296875 -31.390625 21.421875 -30.203125 21.546875 -29.046875 C 21.578125 -29.003906 21.613281 -28.984375 21.65625 -28.984375 C 21.695312 -30.023438 21.75 -31.050781 21.8125 -32.0625 C 21.875 -33.082031 21.960938 -34.09375 22.078125 -35.09375 C 22.078125 -35.257812 22.109375 -34.898438 22.171875 -34.015625 C 22.234375 -33.140625 22.300781 -32.007812 22.375 -30.625 C 22.457031 -29.25 22.535156 -27.867188 22.609375 -26.484375 C 22.691406 -25.109375 22.796875 -23.960938 22.921875 -23.046875 C 24.078125 -22.921875 24.972656 -22.523438 25.609375 -21.859375 C 26.253906 -21.203125 26.65625 -20.441406 26.8125 -19.578125 C 26.976562 -18.722656 26.898438 -17.875 26.578125 -17.03125 C 26.253906 -16.195312 25.675781 -15.519531 24.84375 -15 C 25.238281 -13.238281 25.65625 -11.25 26.09375 -9.03125 C 26.539062 -6.8125 26.882812 -4.800781 27.125 -3 C 27.28125 -1.632812 27.164062 -0.601562 26.78125 0.09375 C 26.40625 0.789062 25.90625 1.175781 25.28125 1.25 C 24.664062 1.332031 24.046875 1.113281 23.421875 0.59375 C 22.804688 0.0703125 22.316406 -0.722656 21.953125 -1.796875 Z M 13.078125 -22.4375 C 13.515625 -22.519531 14.082031 -22.570312 14.78125 -22.59375 C 15.488281 -22.613281 16.039062 -22.644531 16.4375 -22.6875 C 16.351562 -23.195312 16.257812 -23.929688 16.15625 -24.890625 C 16.0625 -25.859375 15.941406 -26.890625 15.796875 -27.984375 C 15.660156 -29.085938 15.492188 -30.097656 15.296875 -31.015625 C 14.816406 -29.335938 14.394531 -27.835938 14.03125 -26.515625 C 13.675781 -25.203125 13.359375 -23.84375 13.078125 -22.4375 Z M 13.078125 -22.4375 "/></g></g></g><g fill="#000000" fill-opacity="1"><g transform="translate(128.907115, 209.68298)"><g><path d="M 34.5625 -5.453125 C 34 -4.140625 33.046875 -3.0625 31.703125 -2.21875 C 30.367188 -1.375 29.019531 -0.796875 27.65625 -0.484375 C 26.09375 -0.117188 24.53125 0.0507812 22.96875 0.03125 C 21.414062 0.0078125 19.835938 -0.117188 18.234375 -0.359375 C 16.679688 -0.597656 15.203125 -0.898438 13.796875 -1.265625 C 13.515625 -0.660156 13.132812 -0.300781 12.65625 -0.1875 C 12.375 -0.144531 12.09375 -0.179688 11.8125 -0.296875 C 11.539062 -0.015625 11.222656 0.125 10.859375 0.125 C 10.460938 0.164062 10.070312 0.144531 9.6875 0.0625 C 9.3125 -0.0195312 8.960938 -0.160156 8.640625 -0.359375 C 8.003906 -0.796875 7.546875 -1.273438 7.265625 -1.796875 C 6.984375 -2.316406 6.757812 -2.9375 6.59375 -3.65625 C 5.632812 -4.0625 4.6875 -4.472656 3.75 -4.890625 C 2.8125 -5.304688 1.878906 -5.753906 0.953125 -6.234375 C 0.078125 -6.710938 -0.476562 -7.453125 -0.71875 -8.453125 C -0.957031 -9.453125 -0.816406 -10.375 -0.296875 -11.21875 C 0.179688 -12.0625 0.910156 -12.613281 1.890625 -12.875 C 2.867188 -13.132812 3.78125 -13.023438 4.625 -12.546875 L 4.859375 -12.359375 C 4.816406 -12.722656 4.753906 -13.070312 4.671875 -13.40625 C 4.597656 -13.75 4.519531 -14.097656 4.4375 -14.453125 C 3.800781 -17.816406 3.128906 -21.164062 2.421875 -24.5 C 1.722656 -27.84375 1.035156 -31.175781 0.359375 -34.5 C 0.316406 -34.625 0.273438 -34.742188 0.234375 -34.859375 C 0.203125 -34.984375 0.164062 -35.082031 0.125 -35.15625 C -0.0390625 -35.757812 0.0507812 -36.289062 0.40625 -36.75 C 0.769531 -37.207031 1.210938 -37.476562 1.734375 -37.5625 C 1.898438 -37.601562 2.050781 -37.632812 2.1875 -37.65625 C 2.332031 -37.675781 2.460938 -37.6875 2.578125 -37.6875 C 2.773438 -38.195312 3.15625 -38.601562 3.71875 -38.90625 C 4.28125 -39.207031 4.898438 -39.40625 5.578125 -39.5 C 6.253906 -39.601562 6.816406 -39.632812 7.265625 -39.59375 C 9.265625 -39.4375 11.03125 -38.796875 12.5625 -37.671875 C 14.101562 -36.554688 15.578125 -35.316406 16.984375 -33.953125 C 18.535156 -32.472656 20.082031 -30.953125 21.625 -29.390625 C 23.164062 -27.835938 24.65625 -26.238281 26.09375 -24.59375 C 26.613281 -24.070312 27.125 -23.519531 27.625 -22.9375 C 28.125 -22.363281 28.597656 -21.78125 29.046875 -21.1875 C 29.804688 -20.1875 30.535156 -19.164062 31.234375 -18.125 C 31.929688 -17.082031 32.5625 -15.976562 33.125 -14.8125 C 33.84375 -13.414062 34.429688 -11.894531 34.890625 -10.25 C 35.347656 -8.613281 35.238281 -7.015625 34.5625 -5.453125 Z M 2.21875 -30.125 C 2.175781 -30.238281 2.054688 -30.425781 1.859375 -30.6875 C 1.660156 -30.945312 1.601562 -30.859375 1.6875 -30.421875 C 2.195312 -28.335938 2.679688 -26.265625 3.140625 -24.203125 C 3.609375 -22.148438 4.101562 -20.082031 4.625 -18 L 6.234375 -11.578125 C 6.441406 -11.492188 6.632812 -11.390625 6.8125 -11.265625 C 6.988281 -11.148438 7.15625 -11.054688 7.3125 -10.984375 C 7.15625 -11.503906 6.988281 -12.015625 6.8125 -12.515625 C 6.632812 -13.015625 6.484375 -13.523438 6.359375 -14.046875 C 6.203125 -14.597656 5.984375 -15.425781 5.703125 -16.53125 C 5.421875 -17.632812 5.117188 -18.851562 4.796875 -20.1875 C 4.472656 -21.53125 4.140625 -22.859375 3.796875 -24.171875 C 3.460938 -25.492188 3.15625 -26.6875 2.875 -27.75 C 2.59375 -28.8125 2.375 -29.601562 2.21875 -30.125 Z M 27.65625 -11.8125 C 27.21875 -12.5 26.769531 -13.191406 26.3125 -13.890625 C 25.851562 -14.585938 25.382812 -15.257812 24.90625 -15.90625 C 24.019531 -17.101562 23.066406 -18.257812 22.046875 -19.375 C 21.023438 -20.5 19.9375 -21.5625 18.78125 -22.5625 C 16.582031 -24.601562 14.082031 -26.421875 11.28125 -28.015625 L 10.140625 -28.625 C 10.660156 -26.144531 11.148438 -23.644531 11.609375 -21.125 C 12.066406 -18.601562 12.5 -16.101562 12.90625 -13.625 C 13.0625 -12.738281 13.21875 -11.84375 13.375 -10.9375 C 13.539062 -10.039062 13.703125 -9.132812 13.859375 -8.21875 C 14.773438 -7.894531 15.710938 -7.582031 16.671875 -7.28125 C 17.640625 -6.988281 18.625 -6.742188 19.625 -6.546875 C 20.414062 -6.378906 21.070312 -6.253906 21.59375 -6.171875 C 22.113281 -6.097656 22.753906 -6.039062 23.515625 -6 C 24.234375 -6 24.851562 -6.019531 25.375 -6.0625 C 25.894531 -6.101562 26.476562 -6.203125 27.125 -6.359375 C 27.644531 -6.484375 28.113281 -6.632812 28.53125 -6.8125 C 28.945312 -6.988281 29.316406 -7.21875 29.640625 -7.5 C 29.597656 -7.894531 29.492188 -8.265625 29.328125 -8.609375 C 29.171875 -8.953125 28.992188 -9.300781 28.796875 -9.65625 C 28.640625 -10.019531 28.457031 -10.390625 28.25 -10.765625 C 28.050781 -11.148438 27.851562 -11.5 27.65625 -11.8125 Z M 27.65625 -11.8125 "/></g></g></g><g fill="#000000" fill-opacity="1"><g transform="translate(163.46708, 209.68298)"><g><path d="M 22.6875 -25.734375 C 23 -23.898438 23.195312 -22.039062 23.28125 -20.15625 C 23.363281 -18.28125 23.300781 -16.398438 23.09375 -14.515625 C 22.9375 -12.878906 22.675781 -11.191406 22.3125 -9.453125 C 21.957031 -7.710938 21.28125 -6.140625 20.28125 -4.734375 C 19.957031 -4.296875 19.613281 -3.863281 19.25 -3.4375 C 18.894531 -3.019531 18.5 -2.632812 18.0625 -2.28125 C 17.5 -1.71875 16.867188 -1.242188 16.171875 -0.859375 C 15.472656 -0.484375 14.703125 -0.238281 13.859375 -0.125 C 13.222656 -0.0820312 12.5625 -0.0820312 11.875 -0.125 C 10.875 0.0390625 9.851562 -0.0351562 8.8125 -0.359375 C 7.78125 -0.679688 6.863281 -1.160156 6.0625 -1.796875 C 4.65625 -2.992188 3.613281 -4.441406 2.9375 -6.140625 C 2.257812 -7.847656 1.757812 -9.582031 1.4375 -11.34375 C 0.84375 -15.175781 0.84375 -19.015625 1.4375 -22.859375 C 2.039062 -26.703125 3.34375 -30.300781 5.34375 -33.65625 C 5.34375 -33.65625 5.378906 -33.695312 5.453125 -33.78125 C 6.054688 -35.382812 6.859375 -36.820312 7.859375 -38.09375 C 7.898438 -38.175781 7.941406 -38.207031 7.984375 -38.1875 C 8.023438 -38.164062 8.023438 -38.117188 7.984375 -38.046875 C 7.816406 -37.765625 7.644531 -37.472656 7.46875 -37.171875 C 7.289062 -36.867188 7.140625 -36.554688 7.015625 -36.234375 C 6.859375 -35.921875 6.71875 -35.59375 6.59375 -35.25 C 6.476562 -34.90625 6.359375 -34.578125 6.234375 -34.265625 C 6.316406 -34.296875 6.40625 -34.300781 6.5 -34.28125 C 6.601562 -34.269531 6.675781 -34.265625 6.71875 -34.265625 C 7.238281 -35.378906 7.859375 -36.351562 8.578125 -37.1875 C 9.296875 -38.03125 10.132812 -38.554688 11.09375 -38.765625 C 11.5 -38.921875 11.890625 -39.046875 12.265625 -39.140625 C 12.648438 -39.242188 13.039062 -39.273438 13.4375 -39.234375 C 13.875 -39.316406 14.320312 -39.347656 14.78125 -39.328125 C 15.25 -39.304688 15.660156 -39.195312 16.015625 -39 C 16.421875 -38.757812 16.769531 -38.414062 17.0625 -37.96875 C 17.363281 -37.53125 17.613281 -37.113281 17.8125 -36.71875 C 18.0625 -36.800781 18.3125 -36.8125 18.5625 -36.75 C 18.820312 -36.6875 19.035156 -36.515625 19.203125 -36.234375 C 19.640625 -35.441406 20.054688 -34.625 20.453125 -33.78125 C 20.859375 -32.9375 21.203125 -32.078125 21.484375 -31.203125 C 21.765625 -30.316406 21.992188 -29.414062 22.171875 -28.5 C 22.347656 -27.582031 22.519531 -26.660156 22.6875 -25.734375 Z M 15.1875 -8.28125 C 15.695312 -9.675781 16.050781 -11.113281 16.25 -12.59375 C 16.457031 -14.070312 16.5625 -15.554688 16.5625 -17.046875 C 16.4375 -18.554688 16.3125 -20.0625 16.1875 -21.5625 C 16.070312 -23.0625 15.894531 -24.554688 15.65625 -26.046875 C 15.582031 -26.484375 15.503906 -26.929688 15.421875 -27.390625 C 15.335938 -27.847656 15.257812 -28.28125 15.1875 -28.6875 C 15.019531 -29.238281 14.835938 -29.773438 14.640625 -30.296875 C 14.441406 -30.816406 14.242188 -31.335938 14.046875 -31.859375 C 13.960938 -32.054688 13.867188 -32.273438 13.765625 -32.515625 C 13.671875 -32.753906 13.5625 -32.976562 13.4375 -33.1875 C 13.351562 -33.257812 13.273438 -33.296875 13.203125 -33.296875 L 12.90625 -33.296875 C 12.738281 -32.972656 12.582031 -32.628906 12.4375 -32.265625 C 12.300781 -31.910156 12.195312 -31.578125 12.125 -31.265625 C 11.800781 -30.179688 11.507812 -29.085938 11.25 -27.984375 C 10.988281 -26.890625 10.78125 -25.757812 10.625 -24.59375 C 10.34375 -22.394531 10.21875 -20.15625 10.25 -17.875 C 10.289062 -15.59375 10.492188 -13.332031 10.859375 -11.09375 C 10.984375 -10.414062 10.90625 -9.816406 10.625 -9.296875 C 9.78125 -13.222656 9.445312 -17.273438 9.625 -21.453125 C 9.8125 -25.628906 10.765625 -29.519531 12.484375 -33.125 C 12.316406 -33 12.160156 -32.828125 12.015625 -32.609375 C 11.878906 -32.390625 11.753906 -32.179688 11.640625 -31.984375 C 11.078125 -30.859375 10.59375 -29.695312 10.1875 -28.5 C 9.789062 -27.300781 9.472656 -26.082031 9.234375 -24.84375 C 9.160156 -24.675781 9.125 -24.59375 9.125 -24.59375 C 9 -23.914062 8.90625 -23.226562 8.84375 -22.53125 C 8.789062 -21.832031 8.722656 -21.140625 8.640625 -20.453125 C 8.554688 -18.421875 8.625 -16.394531 8.84375 -14.375 C 9.070312 -12.351562 9.40625 -10.363281 9.84375 -8.40625 C 9.644531 -8.238281 9.425781 -8.132812 9.1875 -8.09375 C 8.457031 -7.9375 7.753906 -8.054688 7.078125 -8.453125 C 7.398438 -7.816406 7.835938 -7.15625 8.390625 -6.46875 C 8.953125 -5.789062 9.601562 -5.28125 10.34375 -4.9375 C 11.082031 -4.601562 11.875 -4.554688 12.71875 -4.796875 C 13.394531 -5.035156 13.9375 -5.515625 14.34375 -6.234375 C 14.539062 -6.554688 14.707031 -6.882812 14.84375 -7.21875 C 14.988281 -7.5625 15.101562 -7.914062 15.1875 -8.28125 Z M 15.1875 -8.28125 "/></g></g></g><g fill="#000000" fill-opacity="1"><g transform="translate(188.66706, 209.68298)"><g><path d="M 34.265625 -35.34375 C 34.179688 -35.101562 34.097656 -34.898438 34.015625 -34.734375 C 33.972656 -34.210938 33.875 -33.691406 33.71875 -33.171875 C 33.5625 -32.660156 33.242188 -32.242188 32.765625 -31.921875 C 32.554688 -31.765625 32.253906 -31.644531 31.859375 -31.5625 C 31.703125 -31.394531 31.5625 -31.3125 31.4375 -31.3125 C 29.914062 -31.039062 28.394531 -30.765625 26.875 -30.484375 C 25.351562 -30.203125 23.832031 -29.960938 22.3125 -29.765625 C 22.3125 -28.441406 22.300781 -27.117188 22.28125 -25.796875 C 22.269531 -24.472656 22.265625 -23.15625 22.265625 -21.84375 C 22.265625 -20 22.269531 -18.164062 22.28125 -16.34375 C 22.300781 -14.53125 22.3125 -12.703125 22.3125 -10.859375 C 22.351562 -9.816406 22.394531 -8.765625 22.4375 -7.703125 C 22.476562 -6.648438 22.519531 -5.601562 22.5625 -4.5625 C 22.519531 -3.84375 22.40625 -3.148438 22.21875 -2.484375 C 22.039062 -1.828125 21.675781 -1.28125 21.125 -0.84375 L 21.125 -0.953125 C 21.164062 -1.398438 21.1875 -1.832031 21.1875 -2.25 C 21.1875 -2.664062 21.203125 -3.078125 21.234375 -3.484375 L 21.234375 -5.765625 C 21.117188 -5.242188 21.019531 -4.601562 20.9375 -3.84375 C 20.851562 -3.082031 20.710938 -2.398438 20.515625 -1.796875 C 20.316406 -1.160156 19.894531 -0.679688 19.25 -0.359375 C 18.613281 -0.0351562 17.976562 0.0390625 17.34375 -0.125 C 16.101562 -0.519531 15.28125 -1.304688 14.875 -2.484375 C 14.476562 -3.671875 14.238281 -4.84375 14.15625 -6 C 14.082031 -7.519531 14.050781 -9.054688 14.0625 -10.609375 C 14.082031 -12.171875 14.113281 -13.710938 14.15625 -15.234375 C 14.238281 -16.753906 14.328125 -18.296875 14.421875 -19.859375 C 14.523438 -21.421875 14.597656 -22.984375 14.640625 -24.546875 L 14.765625 -27.1875 L 14.765625 -29.09375 C 14.359375 -29.09375 13.960938 -29.09375 13.578125 -29.09375 C 13.203125 -29.09375 12.816406 -29.09375 12.421875 -29.09375 C 10.773438 -29.09375 9.175781 -29.15625 7.625 -29.28125 C 6.976562 -29.363281 6.34375 -29.472656 5.71875 -29.609375 C 5.101562 -29.742188 4.515625 -29.972656 3.953125 -30.296875 C 3.554688 -30.578125 3.1875 -30.914062 2.84375 -31.3125 C 2.507812 -31.71875 2.242188 -32.160156 2.046875 -32.640625 C 1.441406 -32.960938 0.988281 -33.453125 0.6875 -34.109375 C 0.382812 -34.765625 0.316406 -35.457031 0.484375 -36.1875 C 0.679688 -36.78125 1.050781 -37.316406 1.59375 -37.796875 C 2.132812 -38.273438 2.722656 -38.476562 3.359375 -38.40625 C 4.992188 -38.238281 6.628906 -38.101562 8.265625 -38 C 9.910156 -37.90625 11.554688 -37.859375 13.203125 -37.859375 C 13.203125 -37.898438 13.210938 -37.929688 13.234375 -37.953125 C 13.253906 -37.972656 13.265625 -38.003906 13.265625 -38.046875 C 10.023438 -38.242188 6.785156 -38.601562 3.546875 -39.125 C 3.460938 -39.125 3.429688 -39.179688 3.453125 -39.296875 C 3.472656 -39.421875 3.519531 -39.460938 3.59375 -39.421875 C 7.800781 -39.179688 12.003906 -39.097656 16.203125 -39.171875 C 20.398438 -39.253906 24.578125 -39.476562 28.734375 -39.84375 C 29.054688 -39.914062 29.378906 -39.960938 29.703125 -39.984375 C 30.023438 -40.003906 30.320312 -40.035156 30.59375 -40.078125 C 30.757812 -40.078125 30.929688 -40.085938 31.109375 -40.109375 C 31.285156 -40.128906 31.457031 -40.117188 31.625 -40.078125 C 32.0625 -40.160156 32.507812 -40.21875 32.96875 -40.25 C 33.425781 -40.289062 33.875 -40.332031 34.3125 -40.375 C 34.59375 -40.414062 34.765625 -40.265625 34.828125 -39.921875 C 34.890625 -39.585938 34.757812 -39.378906 34.4375 -39.296875 C 34.238281 -39.296875 34.097656 -39.273438 34.015625 -39.234375 C 34.179688 -39.160156 34.300781 -39.082031 34.375 -39 C 35.0625 -38.601562 35.394531 -37.972656 35.375 -37.109375 C 35.351562 -36.242188 34.984375 -35.65625 34.265625 -35.34375 Z M 7.625 -30.71875 C 8.664062 -30.632812 9.722656 -30.632812 10.796875 -30.71875 C 9.597656 -30.84375 8.398438 -31.015625 7.203125 -31.234375 C 6.003906 -31.453125 4.820312 -31.738281 3.65625 -32.09375 C 4.132812 -31.65625 4.734375 -31.328125 5.453125 -31.109375 C 6.179688 -30.890625 6.90625 -30.757812 7.625 -30.71875 Z M 7.625 -30.71875 "/></g></g></g><g fill="#000000" fill-opacity="1"><g transform="translate(223.46703, 209.68298)"><g><path d="M 21.953125 -1.796875 C 21.710938 -1.878906 21.441406 -2.300781 21.140625 -3.0625 C 20.847656 -3.820312 20.53125 -4.757812 20.1875 -5.875 C 19.851562 -7 19.535156 -8.160156 19.234375 -9.359375 C 18.929688 -10.554688 18.660156 -11.632812 18.421875 -12.59375 C 18.179688 -13.5625 18.019531 -14.265625 17.9375 -14.703125 L 13.265625 -14.640625 C 12.816406 -12.835938 12.429688 -11.046875 12.109375 -9.265625 C 11.796875 -7.484375 11.5625 -5.675781 11.40625 -3.84375 C 11.40625 -3.476562 11.234375 -3.296875 10.890625 -3.296875 C 10.546875 -3.296875 10.394531 -3.476562 10.4375 -3.84375 C 10.601562 -5.644531 10.832031 -7.453125 11.125 -9.265625 C 11.425781 -11.085938 11.859375 -12.878906 12.421875 -14.640625 L 11.875 -14.640625 C 11.675781 -13.921875 11.476562 -13.050781 11.28125 -12.03125 C 11.082031 -11.007812 10.890625 -10.007812 10.703125 -9.03125 C 10.523438 -8.050781 10.375 -7.226562 10.25 -6.5625 C 10.132812 -5.90625 10.078125 -5.578125 10.078125 -5.578125 L 9.71875 -2.875 C 9.601562 -1.519531 9.144531 -0.546875 8.34375 0.046875 C 7.539062 0.648438 6.660156 0.890625 5.703125 0.765625 C 4.742188 0.648438 3.929688 0.195312 3.265625 -0.59375 C 2.609375 -1.394531 2.378906 -2.5 2.578125 -3.90625 C 2.816406 -5.664062 3.097656 -7.421875 3.421875 -9.171875 C 3.742188 -10.929688 4.125 -12.675781 4.5625 -14.40625 C 4.28125 -14.363281 4 -14.332031 3.71875 -14.3125 C 3.4375 -14.289062 3.175781 -14.28125 2.9375 -14.28125 C 3.019531 -14.476562 3.039062 -14.65625 3 -14.8125 C 2.039062 -15.0625 1.335938 -15.582031 0.890625 -16.375 C 0.453125 -17.175781 0.332031 -18.066406 0.53125 -19.046875 C 0.738281 -20.023438 1.300781 -20.925781 2.21875 -21.75 C 3.132812 -22.570312 4.492188 -23.125 6.296875 -23.40625 C 6.734375 -25.40625 7.210938 -27.375 7.734375 -29.3125 C 8.253906 -31.25 8.894531 -33.140625 9.65625 -34.984375 C 10.019531 -35.785156 10.421875 -36.65625 10.859375 -37.59375 C 11.296875 -38.53125 11.84375 -39.347656 12.5 -40.046875 C 13.164062 -40.742188 14 -41.09375 15 -41.09375 C 15.519531 -41.132812 16.039062 -40.992188 16.5625 -40.671875 C 17.082031 -40.359375 17.460938 -39.960938 17.703125 -39.484375 C 18.578125 -39.441406 19.304688 -39.128906 19.890625 -38.546875 C 20.472656 -37.972656 20.800781 -37.203125 20.875 -36.234375 C 20.957031 -35.035156 21.054688 -33.828125 21.171875 -32.609375 C 21.296875 -31.390625 21.421875 -30.203125 21.546875 -29.046875 C 21.578125 -29.003906 21.613281 -28.984375 21.65625 -28.984375 C 21.695312 -30.023438 21.75 -31.050781 21.8125 -32.0625 C 21.875 -33.082031 21.960938 -34.09375 22.078125 -35.09375 C 22.078125 -35.257812 22.109375 -34.898438 22.171875 -34.015625 C 22.234375 -33.140625 22.300781 -32.007812 22.375 -30.625 C 22.457031 -29.25 22.535156 -27.867188 22.609375 -26.484375 C 22.691406 -25.109375 22.796875 -23.960938 22.921875 -23.046875 C 24.078125 -22.921875 24.972656 -22.523438 25.609375 -21.859375 C 26.253906 -21.203125 26.65625 -20.441406 26.8125 -19.578125 C 26.976562 -18.722656 26.898438 -17.875 26.578125 -17.03125 C 26.253906 -16.195312 25.675781 -15.519531 24.84375 -15 C 25.238281 -13.238281 25.65625 -11.25 26.09375 -9.03125 C 26.539062 -6.8125 26.882812 -4.800781 27.125 -3 C 27.28125 -1.632812 27.164062 -0.601562 26.78125 0.09375 C 26.40625 0.789062 25.90625 1.175781 25.28125 1.25 C 24.664062 1.332031 24.046875 1.113281 23.421875 0.59375 C 22.804688 0.0703125 22.316406 -0.722656 21.953125 -1.796875 Z M 13.078125 -22.4375 C 13.515625 -22.519531 14.082031 -22.570312 14.78125 -22.59375 C 15.488281 -22.613281 16.039062 -22.644531 16.4375 -22.6875 C 16.351562 -23.195312 16.257812 -23.929688 16.15625 -24.890625 C 16.0625 -25.859375 15.941406 -26.890625 15.796875 -27.984375 C 15.660156 -29.085938 15.492188 -30.097656 15.296875 -31.015625 C 14.816406 -29.335938 14.394531 -27.835938 14.03125 -26.515625 C 13.675781 -25.203125 13.359375 -23.84375 13.078125 -22.4375 Z M 13.078125 -22.4375 "/></g></g></g><g fill="#000000" fill-opacity="1"><g transform="translate(251.666998, 209.68298)"><g><path d="M 34.5625 -5.453125 C 34 -4.140625 33.046875 -3.0625 31.703125 -2.21875 C 30.367188 -1.375 29.019531 -0.796875 27.65625 -0.484375 C 26.09375 -0.117188 24.53125 0.0507812 22.96875 0.03125 C 21.414062 0.0078125 19.835938 -0.117188 18.234375 -0.359375 C 16.679688 -0.597656 15.203125 -0.898438 13.796875 -1.265625 C 13.515625 -0.660156 13.132812 -0.300781 12.65625 -0.1875 C 12.375 -0.144531 12.09375 -0.179688 11.8125 -0.296875 C 11.539062 -0.015625 11.222656 0.125 10.859375 0.125 C 10.460938 0.164062 10.070312 0.144531 9.6875 0.0625 C 9.3125 -0.0195312 8.960938 -0.160156 8.640625 -0.359375 C 8.003906 -0.796875 7.546875 -1.273438 7.265625 -1.796875 C 6.984375 -2.316406 6.757812 -2.9375 6.59375 -3.65625 C 5.632812 -4.0625 4.6875 -4.472656 3.75 -4.890625 C 2.8125 -5.304688 1.878906 -5.753906 0.953125 -6.234375 C 0.078125 -6.710938 -0.476562 -7.453125 -0.71875 -8.453125 C -0.957031 -9.453125 -0.816406 -10.375 -0.296875 -11.21875 C 0.179688 -12.0625 0.910156 -12.613281 1.890625 -12.875 C 2.867188 -13.132812 3.78125 -13.023438 4.625 -12.546875 L 4.859375 -12.359375 C 4.816406 -12.722656 4.753906 -13.070312 4.671875 -13.40625 C 4.597656 -13.75 4.519531 -14.097656 4.4375 -14.453125 C 3.800781 -17.816406 3.128906 -21.164062 2.421875 -24.5 C 1.722656 -27.84375 1.035156 -31.175781 0.359375 -34.5 C 0.316406 -34.625 0.273438 -34.742188 0.234375 -34.859375 C 0.203125 -34.984375 0.164062 -35.082031 0.125 -35.15625 C -0.0390625 -35.757812 0.0507812 -36.289062 0.40625 -36.75 C 0.769531 -37.207031 1.210938 -37.476562 1.734375 -37.5625 C 1.898438 -37.601562 2.050781 -37.632812 2.1875 -37.65625 C 2.332031 -37.675781 2.460938 -37.6875 2.578125 -37.6875 C 2.773438 -38.195312 3.15625 -38.601562 3.71875 -38.90625 C 4.28125 -39.207031 4.898438 -39.40625 5.578125 -39.5 C 6.253906 -39.601562 6.816406 -39.632812 7.265625 -39.59375 C 9.265625 -39.4375 11.03125 -38.796875 12.5625 -37.671875 C 14.101562 -36.554688 15.578125 -35.316406 16.984375 -33.953125 C 18.535156 -32.472656 20.082031 -30.953125 21.625 -29.390625 C 23.164062 -27.835938 24.65625 -26.238281 26.09375 -24.59375 C 26.613281 -24.070312 27.125 -23.519531 27.625 -22.9375 C 28.125 -22.363281 28.597656 -21.78125 29.046875 -21.1875 C 29.804688 -20.1875 30.535156 -19.164062 31.234375 -18.125 C 31.929688 -17.082031 32.5625 -15.976562 33.125 -14.8125 C 33.84375 -13.414062 34.429688 -11.894531 34.890625 -10.25 C 35.347656 -8.613281 35.238281 -7.015625 34.5625 -5.453125 Z M 2.21875 -30.125 C 2.175781 -30.238281 2.054688 -30.425781 1.859375 -30.6875 C 1.660156 -30.945312 1.601562 -30.859375 1.6875 -30.421875 C 2.195312 -28.335938 2.679688 -26.265625 3.140625 -24.203125 C 3.609375 -22.148438 4.101562 -20.082031 4.625 -18 L 6.234375 -11.578125 C 6.441406 -11.492188 6.632812 -11.390625 6.8125 -11.265625 C 6.988281 -11.148438 7.15625 -11.054688 7.3125 -10.984375 C 7.15625 -11.503906 6.988281 -12.015625 6.8125 -12.515625 C 6.632812 -13.015625 6.484375 -13.523438 6.359375 -14.046875 C 6.203125 -14.597656 5.984375 -15.425781 5.703125 -16.53125 C 5.421875 -17.632812 5.117188 -18.851562 4.796875 -20.1875 C 4.472656 -21.53125 4.140625 -22.859375 3.796875 -24.171875 C 3.460938 -25.492188 3.15625 -26.6875 2.875 -27.75 C 2.59375 -28.8125 2.375 -29.601562 2.21875 -30.125 Z M 27.65625 -11.8125 C 27.21875 -12.5 26.769531 -13.191406 26.3125 -13.890625 C 25.851562 -14.585938 25.382812 -15.257812 24.90625 -15.90625 C 24.019531 -17.101562 23.066406 -18.257812 22.046875 -19.375 C 21.023438 -20.5 19.9375 -21.5625 18.78125 -22.5625 C 16.582031 -24.601562 14.082031 -26.421875 11.28125 -28.015625 L 10.140625 -28.625 C 10.660156 -26.144531 11.148438 -23.644531 11.609375 -21.125 C 12.066406 -18.601562 12.5 -16.101562 12.90625 -13.625 C 13.0625 -12.738281 13.21875 -11.84375 13.375 -10.9375 C 13.539062 -10.039062 13.703125 -9.132812 13.859375 -8.21875 C 14.773438 -7.894531 15.710938 -7.582031 16.671875 -7.28125 C 17.640625 -6.988281 18.625 -6.742188 19.625 -6.546875 C 20.414062 -6.378906 21.070312 -6.253906 21.59375 -6.171875 C 22.113281 -6.097656 22.753906 -6.039062 23.515625 -6 C 24.234375 -6 24.851562 -6.019531 25.375 -6.0625 C 25.894531 -6.101562 26.476562 -6.203125 27.125 -6.359375 C 27.644531 -6.484375 28.113281 -6.632812 28.53125 -6.8125 C 28.945312 -6.988281 29.316406 -7.21875 29.640625 -7.5 C 29.597656 -7.894531 29.492188 -8.265625 29.328125 -8.609375 C 29.171875 -8.953125 28.992188 -9.300781 28.796875 -9.65625 C 28.640625 -10.019531 28.457031 -10.390625 28.25 -10.765625 C 28.050781 -11.148438 27.851562 -11.5 27.65625 -11.8125 Z M 27.65625 -11.8125 "/></g></g></g><g fill="#000000" fill-opacity="1"><g transform="translate(286.226963, 209.68298)"><g><path d="M 22.6875 -25.734375 C 23 -23.898438 23.195312 -22.039062 23.28125 -20.15625 C 23.363281 -18.28125 23.300781 -16.398438 23.09375 -14.515625 C 22.9375 -12.878906 22.675781 -11.191406 22.3125 -9.453125 C 21.957031 -7.710938 21.28125 -6.140625 20.28125 -4.734375 C 19.957031 -4.296875 19.613281 -3.863281 19.25 -3.4375 C 18.894531 -3.019531 18.5 -2.632812 18.0625 -2.28125 C 17.5 -1.71875 16.867188 -1.242188 16.171875 -0.859375 C 15.472656 -0.484375 14.703125 -0.238281 13.859375 -0.125 C 13.222656 -0.0820312 12.5625 -0.0820312 11.875 -0.125 C 10.875 0.0390625 9.851562 -0.0351562 8.8125 -0.359375 C 7.78125 -0.679688 6.863281 -1.160156 6.0625 -1.796875 C 4.65625 -2.992188 3.613281 -4.441406 2.9375 -6.140625 C 2.257812 -7.847656 1.757812 -9.582031 1.4375 -11.34375 C 0.84375 -15.175781 0.84375 -19.015625 1.4375 -22.859375 C 2.039062 -26.703125 3.34375 -30.300781 5.34375 -33.65625 C 5.34375 -33.65625 5.378906 -33.695312 5.453125 -33.78125 C 6.054688 -35.382812 6.859375 -36.820312 7.859375 -38.09375 C 7.898438 -38.175781 7.941406 -38.207031 7.984375 -38.1875 C 8.023438 -38.164062 8.023438 -38.117188 7.984375 -38.046875 C 7.816406 -37.765625 7.644531 -37.472656 7.46875 -37.171875 C 7.289062 -36.867188 7.140625 -36.554688 7.015625 -36.234375 C 6.859375 -35.921875 6.71875 -35.59375 6.59375 -35.25 C 6.476562 -34.90625 6.359375 -34.578125 6.234375 -34.265625 C 6.316406 -34.296875 6.40625 -34.300781 6.5 -34.28125 C 6.601562 -34.269531 6.675781 -34.265625 6.71875 -34.265625 C 7.238281 -35.378906 7.859375 -36.351562 8.578125 -37.1875 C 9.296875 -38.03125 10.132812 -38.554688 11.09375 -38.765625 C 11.5 -38.921875 11.890625 -39.046875 12.265625 -39.140625 C 12.648438 -39.242188 13.039062 -39.273438 13.4375 -39.234375 C 13.875 -39.316406 14.320312 -39.347656 14.78125 -39.328125 C 15.25 -39.304688 15.660156 -39.195312 16.015625 -39 C 16.421875 -38.757812 16.769531 -38.414062 17.0625 -37.96875 C 17.363281 -37.53125 17.613281 -37.113281 17.8125 -36.71875 C 18.0625 -36.800781 18.3125 -36.8125 18.5625 -36.75 C 18.820312 -36.6875 19.035156 -36.515625 19.203125 -36.234375 C 19.640625 -35.441406 20.054688 -34.625 20.453125 -33.78125 C 20.859375 -32.9375 21.203125 -32.078125 21.484375 -31.203125 C 21.765625 -30.316406 21.992188 -29.414062 22.171875 -28.5 C 22.347656 -27.582031 22.519531 -26.660156 22.6875 -25.734375 Z M 15.1875 -8.28125 C 15.695312 -9.675781 16.050781 -11.113281 16.25 -12.59375 C 16.457031 -14.070312 16.5625 -15.554688 16.5625 -17.046875 C 16.4375 -18.554688 16.3125 -20.0625 16.1875 -21.5625 C 16.070312 -23.0625 15.894531 -24.554688 15.65625 -26.046875 C 15.582031 -26.484375 15.503906 -26.929688 15.421875 -27.390625 C 15.335938 -27.847656 15.257812 -28.28125 15.1875 -28.6875 C 15.019531 -29.238281 14.835938 -29.773438 14.640625 -30.296875 C 14.441406 -30.816406 14.242188 -31.335938 14.046875 -31.859375 C 13.960938 -32.054688 13.867188 -32.273438 13.765625 -32.515625 C 13.671875 -32.753906 13.5625 -32.976562 13.4375 -33.1875 C 13.351562 -33.257812 13.273438 -33.296875 13.203125 -33.296875 L 12.90625 -33.296875 C 12.738281 -32.972656 12.582031 -32.628906 12.4375 -32.265625 C 12.300781 -31.910156 12.195312 -31.578125 12.125 -31.265625 C 11.800781 -30.179688 11.507812 -29.085938 11.25 -27.984375 C 10.988281 -26.890625 10.78125 -25.757812 10.625 -24.59375 C 10.34375 -22.394531 10.21875 -20.15625 10.25 -17.875 C 10.289062 -15.59375 10.492188 -13.332031 10.859375 -11.09375 C 10.984375 -10.414062 10.90625 -9.816406 10.625 -9.296875 C 9.78125 -13.222656 9.445312 -17.273438 9.625 -21.453125 C 9.8125 -25.628906 10.765625 -29.519531 12.484375 -33.125 C 12.316406 -33 12.160156 -32.828125 12.015625 -32.609375 C 11.878906 -32.390625 11.753906 -32.179688 11.640625 -31.984375 C 11.078125 -30.859375 10.59375 -29.695312 10.1875 -28.5 C 9.789062 -27.300781 9.472656 -26.082031 9.234375 -24.84375 C 9.160156 -24.675781 9.125 -24.59375 9.125 -24.59375 C 9 -23.914062 8.90625 -23.226562 8.84375 -22.53125 C 8.789062 -21.832031 8.722656 -21.140625 8.640625 -20.453125 C 8.554688 -18.421875 8.625 -16.394531 8.84375 -14.375 C 9.070312 -12.351562 9.40625 -10.363281 9.84375 -8.40625 C 9.644531 -8.238281 9.425781 -8.132812 9.1875 -8.09375 C 8.457031 -7.9375 7.753906 -8.054688 7.078125 -8.453125 C 7.398438 -7.816406 7.835938 -7.15625 8.390625 -6.46875 C 8.953125 -5.789062 9.601562 -5.28125 10.34375 -4.9375 C 11.082031 -4.601562 11.875 -4.554688 12.71875 -4.796875 C 13.394531 -5.035156 13.9375 -5.515625 14.34375 -6.234375 C 14.539062 -6.554688 14.707031 -6.882812 14.84375 -7.21875 C 14.988281 -7.5625 15.101562 -7.914062 15.1875 -8.28125 Z M 15.1875 -8.28125 "/></g></g></g></svg>